Coordinates
version=1
nRows=23
nColumns=32
inDegrees=no

Units are S.I. units (second, meters, Newtons, ...)
If the header above contains a line with 'inDegrees', this indicates whether rotational values are in degrees (yes) or radians (no).

endheader
time	pelvis_tilt	pelvis_list	pelvis_rotation	pelvis_tx	pelvis_ty	pelvis_tz	hip_flexion_r	hip_adduction_r	hip_rotation_r	knee_angle_r	ankle_angle_r	subtalar_angle_r	mtp_angle_r	hip_flexion_l	hip_adduction_l	hip_rotation_l	knee_angle_l	ankle_angle_l	subtalar_angle_l	mtp_angle_l	lumbar_extension	lumbar_bending	lumbar_rotation	arm_flex_r	arm_add_r	arm_rot_r	elbow_flex_r	arm_flex_l	arm_add_l	arm_rot_l	elbow_flex_l
1.79	-0.0747316	0.0145908	-0.02647	0.889605	0.989903	-0.291313	1.2848	0.0274982	0.0837083	1.58268	-0.218019	-0.69851	0.102347	-0.390197	-0.0806569	-0.474114	0.455498	-0.335524	-0.0760064	0.0937476	-0.255155	-0.0307836	-0.276926	-1.40626	-0.344988	-0.0628011	1.71521	-0.18155	-0.294044	-0.0496999	2.70881
1.795	-0.0772822	0.0212852	-0.0263759	0.888223	0.993022	-0.292404	1.26649	0.0164385	0.088293	1.47848	-0.229881	-0.672302	0.102456	-0.387229	-0.0756588	-0.456197	0.502128	-0.358878	-0.116379	0.0937897	-0.25762	-0.0322444	-0.275555	-1.40069	-0.336179	-0.0516633	1.72578	-0.192992	-0.2934	-0.0357855	2.70494
1.8	-0.0787059	0.0275805	-0.0241586	0.886536	0.996387	-0.293656	1.24029	0.004123	0.0918579	1.36856	-0.244782	-0.638079	0.102565	-0.378403	-0.0721233	-0.430891	0.561618	-0.369823	-0.155842	0.0938319	-0.262528	-0.0332804	-0.275438	-1.38777	-0.327078	-0.0378692	1.73305	-0.205902	-0.291858	-0.0231099	2.69667
1.805	-0.0788904	0.0331247	-0.0202494	0.884657	0.999954	-0.294959	1.2066	-0.00888152	0.0933549	1.2538	-0.262515	-0.597527	0.102674	-0.364864	-0.0700738	-0.400332	0.632112	-0.37132	-0.19271	0.093874	-0.269533	-0.033655	-0.27638	-1.36817	-0.318039	-0.0219424	1.7374	-0.220539	-0.289105	-0.0125359	2.68285
1.81	-0.0777933	0.0377663	-0.0150787	0.882704	1.00366	-0.296221	1.16616	-0.0221523	0.0916592	1.13561	-0.282341	-0.552194	0.102783	-0.34779	-0.0692684	-0.36673	0.711378	-0.36646	-0.225734	0.0939162	-0.278193	-0.0332994	-0.278209	-1.34277	-0.309385	-0.00441208	1.7394	-0.237134	-0.28489	-0.00468088	2.66232
1.815	-0.0754436	0.0415436	-0.00905801	0.88079	1.00744	-0.297377	1.12001	-0.0354087	0.085606	1.01585	-0.303177	-0.503309	0.102892	-0.3283	-0.0692737	-0.332114	0.797051	-0.357922	-0.254163	0.0939583	-0.288009	-0.0323132	-0.280743	-1.3126	-0.301364	0.014235	1.73968	-0.255808	-0.279085	0.000158175	2.63423
1.82	-0.0719343	0.0446441	-0.00257222	0.879018	1.0112	-0.298394	1.06943	-0.0484876	0.0740585	0.896795	-0.32388	-0.451692	0.103001	-0.307379	-0.0695569	-0.298175	0.886853	-0.347599	-0.277698	0.0940005	-0.298485	-0.0309321	-0.283758	-1.27868	-0.294116	0.0335881	1.73881	-0.276506	-0.271704	0.00202725	2.59822
1.825	-0.0674134	0.0473432	0.00402154	0.877472	1.01487	-0.299268	1.01587	-0.0612991	0.05602	0.780921	-0.343565	-0.397791	0.10311	-0.285819	-0.0695911	-0.266213	0.978768	-0.336475	-0.296388	0.0940428	-0.309176	-0.0294665	-0.286953	-1.24197	-0.287658	0.0533234	1.73729	-0.298961	-0.262917	0.00129032	2.55447
1.83	-0.0620901	0.0499443	0.0103945	0.876209	1.01838	-0.300012	0.960832	-0.0737675	0.0307928	0.670756	-0.36188	-0.341854	0.103219	-0.264173	-0.0689578	-0.237146	1.07117	-0.324768	-0.310546	0.094085	-0.319703	-0.0282172	-0.289933	-1.20329	-0.28188	0.0731899	1.73544	-0.322694	-0.253026	-0.00142999	2.50349
1.835	-0.0561962	0.0526865	0.0162576	0.875259	1.02167	-0.300654	0.905804	-0.0857792	-0.00184096	0.568666	-0.379102	-0.284186	0.103328	-0.242707	-0.0674199	-0.211558	1.16287	-0.312231	-0.320707	0.0941273	-0.329736	-0.0274027	-0.292196	-1.16328	-0.276564	0.0929783	1.73345	-0.347035	-0.242439	-0.00533354	2.44601
1.84	-0.0500199	0.0556685	0.0213692	0.874621	1.02467	-0.301225	0.852151	-0.0971588	-0.0414657	0.476667	-0.396024	-0.225405	0.103437	-0.221392	-0.064963	-0.189746	1.25315	-0.298485	-0.327603	0.0941696	-0.33898	-0.0271027	-0.293165	-1.1224	-0.271418	0.112493	1.73138	-0.371183	-0.231628	-0.00953248	2.38282
1.845	-0.0438901	0.0588363	0.0255531	0.874271	1.02735	-0.301746	0.801034	-0.107674	-0.0869557	0.396287	-0.413638	-0.166595	0.103546	-0.199931	-0.0617985	-0.171763	1.34166	-0.283257	-0.332126	0.0942119	-0.34716	-0.0272245	-0.292223	-1.08097	-0.266125	0.131533	1.72923	-0.394286	-0.22109	-0.0131423	2.31468
1.85	-0.0381478	0.0619928	0.0287156	0.874168	1.02966	-0.302228	0.753342	-0.117066	-0.136489	0.328493	-0.432729	-0.109309	0.103655	-0.177836	-0.0583275	-0.157444	1.42838	-0.266508	-0.335259	0.0942542	-0.354024	-0.0275141	-0.288789	-1.0392	-0.260402	0.149901	1.72704	-0.415547	-0.211298	-0.015372	2.24233
1.855	-0.0330916	0.0648298	0.0308501	0.87426	1.03158	-0.302667	0.709629	-0.125084	-0.187666	0.273696	-0.453512	-0.0554366	0.103764	-0.154543	-0.0550862	-0.146439	1.51347	-0.248428	-0.337979	0.0942966	-0.359377	-0.0275963	-0.282382	-0.997182	-0.25406	0.167419	1.72487	-0.434321	-0.20266	-0.0156113	2.16647
1.86	-0.028907	0.0669628	0.0320272	0.874493	1.03309	-0.303047	0.670079	-0.131498	-0.237714	0.231816	-0.475402	-0.00699636	0.103873	-0.129545	-0.0526845	-0.138242	1.59712	-0.229364	-0.341141	0.094339	-0.363143	-0.0270337	-0.272685	-0.954963	-0.247047	0.183952	1.72292	-0.450203	-0.19549	-0.013503	2.08786
1.865	-0.0256234	0.067979	0.0323761	0.874816	1.03417	-0.30334	0.634485	-0.136083	-0.283774	0.202383	-0.496921	0.0340786	0.103982	-0.102506	-0.0517505	-0.132215	1.67955	-0.209721	-0.345383	0.0943814	-0.365435	-0.0253819	-0.259559	-0.912506	-0.239468	0.199431	1.72151	-0.463085	-0.189994	-0.0089825	2.00743
1.87	-0.0230761	0.0674893	0.032044	0.875185	1.03483	-0.303502	0.602293	-0.13858	-0.323193	0.184666	-0.515713	0.0661297	0.10409	-0.0733187	-0.0528862	-0.127625	1.76084	-0.189883	-0.351071	0.0944238	-0.366594	-0.0222314	-0.24304	-0.869718	-0.23157	0.213846	1.7211	-0.47317	-0.186275	-0.0022721	1.92629
1.875	-0.0209149	0.0651427	0.0311497	0.875562	1.03508	-0.303481	0.572686	-0.13866	-0.353797	0.17779	-0.528643	0.0879352	0.104199	-0.0421158	-0.0566219	-0.123686	1.84096	-0.170156	-0.35828	0.0944662	-0.367172	-0.0172521	-0.223272	-0.826474	-0.223706	0.227239	1.72224	-0.480946	-0.184356	0.00617396	1.84583
1.88	-0.0186595	0.0606448	0.0297498	0.875915	1.03493	-0.303224	0.544714	-0.135916	-0.374118	0.180835	-0.532033	0.0988524	0.104308	-0.0092148	-0.0633728	-0.119592	1.91972	-0.150746	-0.366796	0.0945086	-0.367872	-0.0102237	-0.200446	-0.782656	-0.216271	0.239662	1.72561	-0.487128	-0.184213	0.0157654	1.76768
1.885	-0.0157887	0.0537828	0.0278344	0.876222	1.03439	-0.302687	0.517429	-0.129912	-0.383551	0.192874	-0.522107	0.0989238	0.104417	0.0249757	-0.0733909	-0.114552	1.99679	-0.131745	-0.37612	0.0945511	-0.369448	-0.00105362	-0.174745	-0.738192	-0.209647	0.251137	1.73191	-0.492577	-0.18581	0.025885	1.69364
1.89	-0.0118428	0.0444624	0.0253362	0.876472	1.03347	-0.30184	0.490005	-0.120282	-0.382413	0.212937	-0.495646	0.088912	0.104525	0.0600675	-0.0867151	-0.107826	2.07167	-0.113137	-0.385467	0.0945935	-0.372578	0.010195	-0.14632	-0.693099	-0.20415	0.261628	1.74181	-0.498212	-0.189112	0.03598	1.62553
1.895	-0.00651492	0.032754	0.0221432	0.876656	1.03217	-0.300685	0.461813	-0.106849	-0.371903	0.239905	-0.450839	0.0702377	0.104634	0.0957896	-0.103127	-0.0987944	2.1437	-0.0948022	-0.393778	0.094636	-0.377748	0.0232644	-0.115293	-0.647502	-0.20001	0.271038	1.75592	-0.504936	-0.194104	0.0456152	1.5651
1.9	0.000280619	0.0189261	0.0181091	0.876762	1.03051	-0.299236	0.432439	-0.0897208	-0.353901	0.272378	-0.388099	0.0447613	0.104743	0.132055	-0.12213	-0.0870255	2.21212	-0.0765355	-0.39976	0.0946785	-0.385163	0.0376731	-0.0817836	-0.601633	-0.197352	0.279235	1.77466	-0.513568	-0.20079	0.0544834	1.51383
